<svg xmlns="http://www.w3.org/2000/svg" viewBox="0 0 491 402">
  <path d="M 209.301 29.250 C 195.904 52.509, 172.023 95.334, 134.996 162.500 C 133.480 165.250, 130.102 171.325, 127.488 176 C 117.964 193.040, 90.142 244.102, 82.811 258 C 79.764 263.775, 74.790 273, 71.756 278.500 C 57.532 304.286, 48.686 320.450, 45.647 326.210 C 43.822 329.670, 40.984 334.750, 39.341 337.500 C 32.059 349.688, 10 389.970, 10 391.079 C 10 393.206, 36.247 391.491, 56.500 388.041 C 137.419 374.255, 227.602 335.528, 298.500 284.122 C 324.431 265.320, 364.114 231.483, 382.316 212.654 C 399.119 195.274, 423.124 168.074, 431.535 156.886 C 432.616 155.449, 436.911 149.824, 441.080 144.386 C 452.534 129.449, 474.684 95.708, 479.353 86.088 C 481.122 82.442, 480.529 80.224, 478.633 83.393 C 477.267 85.675, 465.587 100.225, 458.565 108.390 C 455.779 111.630, 451.522 116.580, 449.104 119.390 C 433.223 137.848, 403.220 167.665, 382.500 185.581 C 331.802 229.419, 257.023 269.655, 176 296.691 C 156.148 303.316, 126.383 311.355, 124.962 310.476 C 124.530 310.210, 128.234 302.456, 133.192 293.246 C 138.150 284.036, 144.464 272.225, 147.225 267 C 149.985 261.775, 153.255 255.700, 154.492 253.500 C 155.729 251.300, 159.121 245, 162.029 239.500 C 168.742 226.808, 190.428 186.642, 202.523 164.500 C 207.631 155.150, 213.540 144.042, 215.655 139.817 C 217.770 135.591, 220.085 132.103, 220.801 132.067 C 221.517 132.030, 222.804 133.688, 223.662 135.750 C 224.520 137.813, 228.039 144.450, 231.483 150.500 C 234.927 156.550, 240.889 167.125, 244.731 174 C 267.181 214.167, 279.006 234.601, 280.257 235.391 C 281.254 236.019, 285.709 234.031, 295.233 228.703 C 307.450 221.871, 312.423 218.859, 328.250 208.709 C 330.863 207.034, 333 205.257, 333 204.760 C 333 204.263, 331.920 201.976, 330.600 199.678 C 329.281 197.380, 320.906 182.900, 311.991 167.500 C 295.210 138.514, 294.031 136.457, 277.012 106.500 C 271.388 96.600, 264.652 84.900, 262.043 80.500 C 259.434 76.100, 249.332 58.438, 239.594 41.250 C 229.856 24.063, 221.551 10, 221.139 10 C 220.727 10, 215.400 18.662, 209.301 29.250 M 303.329 49.458 C 299.759 51.011, 297.331 54.469, 299.060 55.537 C 299.646 55.900, 301.045 55.364, 302.168 54.348 C 304.637 52.114, 312.869 51.817, 315.346 53.872 C 317.527 55.682, 317.470 61.268, 315.250 63.261 C 314.288 64.126, 312.185 64.983, 310.577 65.166 C 306.471 65.635, 306.262 67.639, 310.241 68.385 C 315 69.278, 317.736 71.523, 318.543 75.197 C 319.135 77.892, 318.826 78.753, 316.567 80.696 C 312.363 84.312, 303.169 83.534, 300.700 79.354 C 299.389 77.133, 296.818 77.714, 297.180 80.150 C 297.783 84.200, 302.430 86.500, 310.001 86.496 C 315.853 86.493, 317.219 86.143, 319.408 84.086 C 322.902 80.804, 323.694 75.983, 321.382 72.070 C 320.385 70.382, 319.017 69, 318.343 69 C 316.312 69, 315.606 66.800, 317.328 65.836 C 318.213 65.341, 319.679 63.372, 320.586 61.460 C 321.990 58.500, 322.044 57.521, 320.948 54.873 C 318.442 48.823, 310.441 46.364, 303.329 49.458 M 341.761 50.062 C 339.525 51.243, 337.270 53.536, 336.152 55.768 C 333.999 60.063, 332.622 67.579, 333.675 69.283 C 334.070 69.922, 334.291 72.032, 334.166 73.972 C 333.386 86.135, 352.298 91.980, 359.439 81.783 C 361.400 78.984, 361.451 72.774, 359.544 69.085 C 356.435 63.072, 346.473 61.539, 341.276 66.273 C 339.273 68.098, 338.989 68.135, 338.416 66.642 C 337.281 63.685, 339.078 57.768, 341.997 54.850 C 344.184 52.662, 345.780 52, 348.864 52 C 351.074 52, 353.160 52.450, 353.500 53 C 354.598 54.776, 358.180 54.175, 357.814 52.275 C 356.993 48.008, 348 46.769, 341.761 50.062 M 378.966 49.090 C 375.576 50.338, 371.236 57.240, 370.420 62.683 C 368.453 75.802, 375.480 87.097, 385.500 86.923 C 394.977 86.759, 399.500 80.265, 399.500 66.822 C 399.500 59.583, 399.153 57.677, 397.408 55.322 C 392.646 48.898, 385.788 46.580, 378.966 49.090 M 378.777 54.908 C 375.707 57.651, 375.503 58.262, 375.165 65.708 C 374.713 75.656, 376.314 79.972, 381.339 82.357 C 388.438 85.725, 394.437 80.547, 395.690 69.970 C 397.374 55.750, 387.588 47.035, 378.777 54.908 M 341.819 68.536 C 338.729 70.214, 337.653 72.770, 338.544 76.320 C 340.292 83.283, 350.127 85.879, 354.684 80.581 C 357.697 77.078, 357.614 73.883, 354.411 70.077 C 352.369 67.650, 351.049 67.008, 348.161 67.040 C 346.147 67.062, 343.293 67.735, 341.819 68.536 M 350 258.534 C 341.698 265.539, 322.148 280.576, 316.131 284.586 C 308.597 289.607, 308.568 289.719, 312.875 297.050 C 314.959 300.598, 319.895 309.350, 323.843 316.500 C 327.792 323.650, 332.063 331.300, 333.335 333.500 C 334.608 335.700, 337.226 340.425, 339.153 344 C 351.084 366.131, 362.584 386.885, 364.226 389.250 L 366.136 392 401.568 392 C 421.056 392, 437 391.820, 437 391.600 C 437 391.058, 407.736 338.893, 403.003 331 C 401.825 329.034, 382.777 294.633, 377.534 285 C 366.090 263.976, 359.387 253.002, 358.004 253.025 C 357.177 253.039, 353.575 255.518, 350 258.534" fill="#FFFFFF" fill-rule="evenodd"/>
</svg>
