<svg xmlns="http://www.w3.org/2000/svg" viewBox="0 0 748 657">
  <path d="M 364.301 29.250 C 350.904 52.509, 327.023 95.334, 289.996 162.500 C 288.480 165.250, 285.102 171.325, 282.488 176 C 272.964 193.040, 245.142 244.102, 237.811 258 C 234.764 263.775, 229.790 273, 226.756 278.500 C 212.532 304.286, 203.686 320.450, 200.647 326.210 C 198.822 329.670, 195.984 334.750, 194.341 337.500 C 187.059 349.688, 165 389.970, 165 391.079 C 165 393.206, 191.247 391.491, 211.500 388.041 C 292.419 374.255, 382.602 335.528, 453.500 284.122 C 479.431 265.320, 519.114 231.483, 537.316 212.654 C 554.119 195.274, 578.124 168.074, 586.535 156.886 C 587.616 155.449, 591.911 149.824, 596.080 144.386 C 607.534 129.449, 629.684 95.708, 634.353 86.088 C 636.122 82.442, 635.529 80.224, 633.633 83.393 C 632.267 85.675, 620.587 100.225, 613.565 108.390 C 610.779 111.630, 606.522 116.580, 604.104 119.390 C 588.223 137.848, 558.220 167.665, 537.500 185.581 C 486.802 229.419, 412.023 269.655, 331 296.691 C 311.148 303.316, 281.383 311.355, 279.962 310.476 C 279.530 310.210, 283.234 302.456, 288.192 293.246 C 293.150 284.036, 299.464 272.225, 302.225 267 C 304.985 261.775, 308.255 255.700, 309.492 253.500 C 310.729 251.300, 314.121 245, 317.029 239.500 C 323.742 226.808, 345.428 186.642, 357.523 164.500 C 362.631 155.150, 368.540 144.042, 370.655 139.817 C 372.770 135.591, 375.085 132.103, 375.801 132.067 C 376.517 132.030, 377.804 133.688, 378.662 135.750 C 379.520 137.813, 383.039 144.450, 386.483 150.500 C 389.927 156.550, 395.889 167.125, 399.731 174 C 422.181 214.167, 434.006 234.601, 435.257 235.391 C 436.254 236.019, 440.709 234.031, 450.233 228.703 C 462.450 221.871, 467.423 218.859, 483.250 208.709 C 485.863 207.034, 488 205.257, 488 204.760 C 488 204.263, 486.920 201.976, 485.600 199.678 C 484.281 197.380, 475.906 182.900, 466.991 167.500 C 450.210 138.514, 449.031 136.457, 432.012 106.500 C 426.388 96.600, 419.652 84.900, 417.043 80.500 C 414.434 76.100, 404.332 58.438, 394.594 41.250 C 384.856 24.063, 376.551 10, 376.139 10 C 375.727 10, 370.400 18.662, 364.301 29.250 M 458.329 49.458 C 454.759 51.011, 452.331 54.469, 454.060 55.537 C 454.646 55.900, 456.045 55.364, 457.168 54.348 C 459.637 52.114, 467.869 51.817, 470.346 53.872 C 472.527 55.682, 472.470 61.268, 470.250 63.261 C 469.288 64.126, 467.185 64.983, 465.577 65.166 C 461.471 65.635, 461.262 67.639, 465.241 68.385 C 470 69.278, 472.736 71.523, 473.543 75.197 C 474.135 77.892, 473.826 78.753, 471.567 80.696 C 467.363 84.312, 458.169 83.534, 455.700 79.354 C 454.389 77.133, 451.818 77.714, 452.180 80.150 C 452.783 84.200, 457.430 86.500, 465.001 86.496 C 470.853 86.493, 472.219 86.143, 474.408 84.086 C 477.902 80.804, 478.694 75.983, 476.382 72.070 C 475.385 70.382, 474.017 69, 473.343 69 C 471.312 69, 470.606 66.800, 472.328 65.836 C 473.213 65.341, 474.679 63.372, 475.586 61.460 C 476.990 58.500, 477.044 57.521, 475.948 54.873 C 473.442 48.823, 465.441 46.364, 458.329 49.458 M 496.761 50.062 C 494.525 51.243, 492.270 53.536, 491.152 55.768 C 488.999 60.063, 487.622 67.579, 488.675 69.283 C 489.070 69.922, 489.291 72.032, 489.166 73.972 C 488.386 86.135, 507.298 91.980, 514.439 81.783 C 516.400 78.984, 516.451 72.774, 514.544 69.085 C 511.435 63.072, 501.473 61.539, 496.276 66.273 C 494.273 68.098, 493.989 68.135, 493.416 66.642 C 492.281 63.685, 494.078 57.768, 496.997 54.850 C 499.184 52.662, 500.780 52, 503.864 52 C 506.074 52, 508.160 52.450, 508.500 53 C 509.598 54.776, 513.180 54.175, 512.814 52.275 C 511.993 48.008, 503 46.769, 496.761 50.062 M 533.966 49.090 C 530.576 50.338, 526.236 57.240, 525.420 62.683 C 523.453 75.802, 530.480 87.097, 540.500 86.923 C 549.977 86.759, 554.500 80.265, 554.500 66.822 C 554.500 59.583, 554.153 57.677, 552.408 55.322 C 547.646 48.898, 540.788 46.580, 533.966 49.090 M 533.777 54.908 C 530.707 57.651, 530.503 58.262, 530.165 65.708 C 529.713 75.656, 531.314 79.972, 536.339 82.357 C 543.438 85.725, 549.437 80.547, 550.690 69.970 C 552.374 55.750, 542.588 47.035, 533.777 54.908 M 496.819 68.536 C 493.729 70.214, 492.653 72.770, 493.544 76.320 C 495.292 83.283, 505.127 85.879, 509.684 80.581 C 512.697 77.078, 512.614 73.883, 509.411 70.077 C 507.369 67.650, 506.049 67.008, 503.161 67.040 C 501.147 67.062, 498.293 67.735, 496.819 68.536 M 505 258.534 C 496.698 265.539, 477.148 280.576, 471.131 284.586 C 463.597 289.607, 463.568 289.719, 467.875 297.050 C 469.959 300.598, 474.895 309.350, 478.843 316.500 C 482.792 323.650, 487.063 331.300, 488.335 333.500 C 489.608 335.700, 492.226 340.425, 494.153 344 C 506.084 366.131, 517.584 386.885, 519.226 389.250 L 521.136 392 556.568 392 C 576.056 392, 592 391.820, 592 391.600 C 592 391.058, 562.736 338.893, 558.003 331 C 556.825 329.034, 537.777 294.633, 532.534 285 C 521.090 263.976, 514.387 253.002, 513.004 253.025 C 512.177 253.039, 508.575 255.518, 505 258.534 M 663.337 462.440 C 651.637 465.096, 643.670 470.887, 639.229 479.964 C 634.336 489.965, 636.004 500.984, 643.452 507.849 C 649.351 513.287, 653.298 515.141, 670.102 520.370 C 688.311 526.036, 687.709 525.801, 692.718 529.194 C 702.896 536.090, 699.699 550.490, 687.219 553.956 C 681.148 555.642, 669.384 555.199, 662.024 553.007 C 658.343 551.911, 652.542 549.211, 649.132 547.007 C 645.722 544.803, 642.320 543, 641.571 543 C 639.980 543, 634 551.920, 634 554.293 C 634 556.377, 645.599 563.233, 653.654 565.911 C 663.365 569.139, 675.472 570.151, 685.317 568.557 C 704.296 565.485, 715.925 554.357, 715.978 539.218 C 716.035 522.880, 705.349 513.571, 677.442 505.651 C 658.045 500.146, 652.568 496.474, 652.778 489.114 C 653.106 477.579, 667.149 472.243, 684.710 476.982 C 689.225 478.201, 695.024 480.532, 697.596 482.163 C 700.168 483.794, 702.610 484.762, 703.022 484.314 C 703.435 483.866, 705.146 481.262, 706.824 478.527 C 710.421 472.665, 710.177 472.127, 702.060 468.031 C 690.142 462.016, 674.897 459.815, 663.337 462.440 M 55.323 464 C 55.091 464.825, 54.047 467.122, 53.004 469.104 C 50.803 473.289, 32 513.822, 32 514.384 C 32 514.591, 29.300 520.457, 26 527.418 C 22.700 534.380, 20 540.288, 20 540.549 C 20 540.809, 17.778 545.721, 15.063 551.464 C 11.964 558.018, 10.236 562.946, 10.422 564.702 C 10.710 567.439, 10.870 567.506, 17.702 567.791 C 22.497 567.990, 25.021 567.677, 25.750 566.791 C 26.334 566.081, 29.735 558.750, 33.308 550.500 C 36.880 542.250, 43.045 528.075, 47.006 519 C 50.968 509.925, 55.529 499.350, 57.142 495.500 C 63.999 479.128, 62.829 478.834, 71.062 499 C 73.868 505.875, 76.833 512.850, 77.650 514.500 C 78.467 516.150, 81.177 522.450, 83.673 528.500 C 86.168 534.550, 89.364 541.955, 90.775 544.956 C 92.186 547.957, 94.974 554.257, 96.972 558.956 L 100.603 567.500 108.968 567.793 C 118.339 568.122, 120.754 567.638, 119.237 565.738 C 118.693 565.057, 116.675 560.900, 114.752 556.500 C 112.830 552.100, 103.937 532.525, 94.992 513 C 86.046 493.475, 77.304 474.187, 75.566 470.137 L 72.405 462.774 64.075 462.637 C 57.443 462.528, 55.659 462.806, 55.323 464 M 339 462.947 L 335.500 463.500 335.500 515.500 L 335.500 567.500 378 567.500 L 420.500 567.500 420.500 561.500 L 420.500 555.500 386 555.236 L 351.500 554.972 351.245 509.315 C 351.105 484.203, 350.880 463.572, 350.745 463.466 C 349.935 462.835, 341.947 462.482, 339 462.947 M 521.245 463.250 C 520.695 463.938, 515.188 475.750, 509.007 489.500 C 502.826 503.250, 496.194 517.875, 494.269 522 C 484.066 543.861, 474 566.242, 474 567.065 C 474 568.526, 490.570 568.232, 491.752 566.750 C 492.301 566.063, 497.794 553.575, 503.961 539 C 510.127 524.425, 516.031 510.700, 517.080 508.500 C 518.129 506.300, 520.924 499.805, 523.291 494.068 C 525.657 488.330, 528.076 483.475, 528.665 483.278 C 529.255 483.082, 530.417 484.851, 531.248 487.211 C 532.625 491.120, 553.734 540.256, 562.304 559.500 L 565.866 567.500 575.013 567.789 C 584.139 568.077, 584.158 568.072, 583.444 565.789 C 583.051 564.530, 578.316 553.759, 572.921 541.854 C 567.527 529.949, 562.473 518.699, 561.689 516.854 C 557.843 507.800, 537.629 464.342, 536.755 463.250 C 536.133 462.472, 533.204 462, 529 462 C 524.796 462, 521.867 462.472, 521.245 463.250 M 163.406 464.386 C 163.113 465.148, 163.015 467.735, 163.187 470.136 L 163.500 474.500 183.500 475 L 203.500 475.500 204 521.500 L 204.500 567.500 211.500 567.500 L 218.500 567.500 219 521.500 L 219.500 475.500 240 475 L 260.500 474.500 260.800 468.750 L 261.100 463 212.519 463 C 172.040 463, 163.849 463.231, 163.406 464.386 M 508.500 615.350 C 499.971 619.315, 496.834 628.631, 500.964 637.729 C 503.131 642.503, 507.390 645.552, 513.281 646.548 C 517.042 647.183, 518.028 646.937, 525 643.617 C 528.015 642.182, 531.859 634.755, 531.941 630.210 C 532.019 625.862, 528.782 619.693, 525.016 617.011 C 521.175 614.276, 512.654 613.419, 508.500 615.350 M 128.179 618.250 C 127.087 620.038, 124.981 624.425, 123.497 628 C 122.014 631.575, 119.746 636.722, 118.457 639.437 C 116.197 644.197, 116.084 646, 118.046 646 C 118.557 646, 120.123 644.182, 121.525 641.960 L 124.075 637.920 132.288 638.210 C 140.452 638.498, 140.509 638.519, 142 641.717 C 143.564 645.071, 145.786 646.623, 147.104 645.283 C 147.528 644.852, 146.174 641.125, 144.095 637 C 142.016 632.875, 139.484 627.250, 138.467 624.500 C 134.686 614.277, 131.709 612.468, 128.179 618.250 M 170.724 617.665 C 170.227 620.263, 171.597 624.468, 176.533 635.500 C 177.271 637.150, 178.568 640.218, 179.415 642.319 C 180.714 645.539, 181.361 646.087, 183.545 645.819 C 185.750 645.547, 186.575 644.385, 189.092 638 C 191.992 630.644, 194.796 624.259, 197.562 618.710 C 198.790 616.247, 198.763 615.846, 197.332 615.297 C 195.207 614.482, 193.767 616.559, 189.984 625.897 C 184.722 638.887, 183.723 641, 182.848 641 C 182.382 641, 182 640.446, 182 639.769 C 182 637.895, 173.837 617.686, 172.467 616.168 C 171.494 615.090, 171.161 615.376, 170.724 617.665 M 225.438 616.300 C 225.165 617.013, 225.067 623.875, 225.220 631.548 L 225.500 645.500 237.500 645.500 C 247.500 645.500, 249.500 645.250, 249.500 644 C 249.500 642.777, 247.691 642.477, 239.710 642.376 C 234.325 642.308, 229.666 642, 229.357 641.690 C 229.048 641.381, 229.109 638.844, 229.493 636.053 L 230.191 630.979 238.061 631.239 C 242.815 631.397, 245.931 631.104, 245.930 630.500 C 245.930 629.899, 242.878 629.600, 238.274 629.750 C 233.003 629.923, 230.371 629.611, 229.825 628.750 C 228.623 626.859, 228.845 619.214, 230.123 618.424 C 230.741 618.042, 234.004 617.624, 237.373 617.495 C 240.743 617.366, 245.038 617.202, 246.917 617.130 C 254.377 616.846, 248.439 615.743, 237.517 615.384 C 228.676 615.094, 225.818 615.311, 225.438 616.300 M 278 629.893 C 278 641.747, 278.286 644.896, 279.402 645.324 C 281.548 646.148, 282 645.119, 282 639.413 C 282 634.363, 282.119 634.133, 285.067 633.485 C 288.719 632.683, 290.669 634.166, 295.238 641.218 C 297.478 644.674, 298.983 646, 300.668 646 C 302.954 646, 303.815 644.622, 302.166 643.603 C 301.708 643.319, 300.056 641.246, 298.497 638.995 L 295.661 634.903 298.952 631.896 C 302.029 629.086, 302.212 628.557, 301.755 623.799 C 301.036 616.317, 298.943 615.050, 287.250 615.022 L 278 615 278 629.893 M 332.550 615.919 C 332.301 616.321, 332.028 623.142, 331.942 631.075 L 331.786 645.500 341.839 645.784 C 351.664 646.062, 351.964 646.004, 355.090 643.211 C 357.964 640.643, 358.218 639.974, 357.589 636.624 C 357.188 634.484, 356.167 632.639, 355.195 632.295 C 354.263 631.966, 352.815 631.112, 351.977 630.399 C 351.140 629.685, 347.315 628.966, 343.477 628.801 L 336.500 628.500 336.500 623.537 C 336.500 618.789, 336.641 618.534, 339.775 617.636 C 342.079 616.975, 344.247 617.091, 347.086 618.028 C 351.448 619.468, 353 621.412, 353 625.434 C 353 628.238, 354.141 628.740, 355.845 626.687 C 357.259 624.983, 356.196 618.407, 354.245 616.789 C 352.609 615.430, 333.330 614.657, 332.550 615.919 M 396.820 617.250 C 396.045 618.487, 393.262 624.182, 390.636 629.905 C 387.122 637.561, 386.032 640.993, 386.510 642.896 L 387.159 645.481 389.496 641.608 L 391.834 637.735 399.805 637.617 L 407.775 637.500 409.638 641.500 C 410.662 643.700, 412.288 645.645, 413.250 645.823 C 415.567 646.251, 415.459 644.895, 412.677 638.686 C 411.399 635.834, 408.832 629.900, 406.971 625.500 C 405.111 621.100, 403.176 616.938, 402.672 616.250 C 401.235 614.291, 398.367 614.781, 396.820 617.250 M 442.369 616.480 C 442.134 617.094, 442.067 623.875, 442.220 631.548 L 442.500 645.500 452.267 645.433 C 462.846 645.360, 465.061 644.480, 469.438 638.612 C 472.169 634.951, 472.176 626.691, 469.451 622.049 C 466.240 616.579, 461.925 614.908, 451.649 615.153 C 446.241 615.282, 442.631 615.798, 442.369 616.480 M 561.468 615.765 C 560.796 616.243, 560.621 621.569, 560.968 631 C 561.408 642.986, 561.760 645.500, 563 645.500 C 564.111 645.500, 564.630 643.944, 565 639.500 C 565.538 633.042, 565.397 633.144, 572.713 633.878 C 573.380 633.945, 575.732 636.661, 577.940 639.912 C 581.198 644.710, 582.353 645.721, 584.062 645.273 C 585.221 644.970, 585.755 644.447, 585.248 644.111 C 584.741 643.775, 583.050 641.301, 581.489 638.614 C 578.757 633.911, 578.721 633.677, 580.517 632.364 C 581.543 631.614, 582.674 631, 583.031 631 C 584.092 631, 586 626.100, 586 623.376 C 586 621.913, 584.767 619.613, 583.077 617.923 C 580.285 615.131, 579.759 615.001, 571.327 615.015 C 566.472 615.024, 562.035 615.361, 561.468 615.765 M 623.597 617.166 C 622.718 618.419, 622 619.786, 622 620.203 C 622 621.080, 614.664 637.217, 612.475 641.154 C 609.101 647.225, 612.721 647.986, 616.500 642 L 619.025 638 626.992 638 L 634.959 638 636.957 641.915 C 638.735 645.402, 639.960 646.074, 642.711 645.077 C 642.827 645.034, 641.477 641.959, 639.711 638.242 C 637.945 634.525, 635.825 629.692, 635 627.501 C 630.509 615.575, 626.962 612.361, 623.597 617.166 M 282.332 618.635 C 280.617 619.335, 281.803 629.190, 283.790 630.750 C 289.099 634.918, 300.615 628.371, 298.351 622.472 C 297.055 619.094, 287.066 616.701, 282.332 618.635 M 398.667 618.667 C 398.300 619.033, 397.985 620.046, 397.966 620.917 C 397.947 621.788, 397.063 624.300, 396 626.500 C 394.937 628.700, 394.053 631.513, 394.034 632.750 C 394.003 634.774, 394.476 634.998, 398.750 634.985 C 405.915 634.962, 406.754 634.076, 404.583 628.826 C 403.600 626.447, 402.391 623.719, 401.897 622.764 C 401.404 621.809, 401 620.346, 401 619.514 C 401 617.940, 399.821 617.512, 398.667 618.667 M 447 629.884 L 447 642 453.465 642 C 459.271 642, 460.291 641.683, 463.465 638.896 C 466.661 636.091, 467 635.293, 467 630.593 C 467 625.960, 466.617 625.021, 463.493 621.993 C 460.383 618.979, 459.251 618.547, 453.493 618.180 L 447 617.767 447 629.884 M 507.514 621.168 C 500.485 627.609, 502.098 637.585, 510.852 641.815 C 514.344 643.502, 515.221 643.567, 518.643 642.397 C 524.360 640.442, 526.989 636.624, 526.995 630.266 C 526.999 625.938, 526.514 624.487, 524.191 621.887 C 521.923 619.349, 520.402 618.649, 516.303 618.255 C 511.608 617.804, 510.944 618.024, 507.514 621.168 M 564.913 618.420 C 564.682 618.651, 564.719 621.689, 564.996 625.170 L 565.500 631.500 570.500 631.500 C 575.999 631.500, 579.049 630.100, 581.415 626.489 C 582.872 624.266, 582.808 623.925, 580.396 621.059 C 578.031 618.248, 577.315 618, 571.578 618 C 568.143 618, 565.144 618.189, 564.913 618.420 M 131.260 621.186 C 129.337 623.504, 125.055 633.722, 125.727 634.393 C 126.503 635.170, 132.819 635.155, 135.750 634.370 C 138.575 633.613, 138.527 632.858, 135.189 625.610 C 132.929 620.700, 132.275 619.964, 131.260 621.186 M 623.131 626.250 C 620.532 631.901, 620.410 632.622, 621.856 633.777 C 623.301 634.930, 631.549 634.601, 632.955 633.334 C 633.205 633.108, 632.814 631.478, 632.085 629.712 C 631.357 627.945, 630.254 625.038, 629.636 623.250 C 629.017 621.462, 627.947 620, 627.259 620 C 626.570 620, 624.713 622.813, 623.131 626.250 M 13 632 C 13 632.648, 25.833 633, 49.500 633 C 73.167 633, 86 632.648, 86 632 C 86 631.352, 73.167 631, 49.500 631 C 25.833 631, 13 631.352, 13 632 M 670 632 C 670 632.647, 682 633, 704 633 C 726 633, 738 632.647, 738 632 C 738 631.353, 726 631, 704 631 C 682 631, 670 631.353, 670 632 M 336.402 633.395 C 336.108 634.162, 336.009 636.496, 336.183 638.582 L 336.500 642.373 342.588 642.708 C 347.578 642.983, 349.155 642.666, 351.338 640.949 C 357.159 636.370, 353.208 632, 343.246 632 C 338.772 632, 336.782 632.406, 336.402 633.395" fill="#FFFFFF" fill-rule="evenodd"/>
</svg>
