<svg xmlns="http://www.w3.org/2000/svg" viewBox="0 0 748 206">
  <path d="M 663.337 11.440 C 651.637 14.096, 643.670 19.887, 639.229 28.964 C 634.336 38.965, 636.004 49.984, 643.452 56.849 C 649.351 62.287, 653.298 64.141, 670.102 69.370 C 688.311 75.036, 687.709 74.801, 692.718 78.194 C 702.896 85.090, 699.699 99.490, 687.219 102.956 C 681.148 104.642, 669.384 104.199, 662.024 102.007 C 658.343 100.911, 652.542 98.211, 649.132 96.007 C 645.722 93.803, 642.320 92, 641.571 92 C 639.980 92, 634 100.920, 634 103.293 C 634 105.377, 645.599 112.233, 653.654 114.911 C 663.365 118.139, 675.472 119.151, 685.317 117.557 C 704.296 114.485, 715.925 103.357, 715.978 88.218 C 716.035 71.880, 705.349 62.571, 677.442 54.651 C 658.045 49.146, 652.568 45.474, 652.778 38.114 C 653.106 26.579, 667.149 21.243, 684.710 25.982 C 689.225 27.201, 695.024 29.532, 697.596 31.163 C 700.168 32.794, 702.610 33.762, 703.022 33.314 C 703.435 32.866, 705.146 30.262, 706.824 27.527 C 710.421 21.665, 710.177 21.127, 702.060 17.031 C 690.142 11.016, 674.897 8.815, 663.337 11.440 M 55.323 13 C 55.091 13.825, 54.047 16.122, 53.004 18.104 C 50.803 22.289, 32 62.822, 32 63.384 C 32 63.591, 29.300 69.457, 26 76.418 C 22.700 83.380, 20 89.288, 20 89.549 C 20 89.809, 17.778 94.721, 15.063 100.464 C 11.964 107.018, 10.236 111.946, 10.422 113.702 C 10.710 116.439, 10.870 116.506, 17.702 116.791 C 22.497 116.990, 25.021 116.677, 25.750 115.791 C 26.334 115.081, 29.735 107.750, 33.308 99.500 C 36.880 91.250, 43.045 77.075, 47.006 68 C 50.968 58.925, 55.529 48.350, 57.142 44.500 C 63.999 28.128, 62.829 27.834, 71.062 48 C 73.868 54.875, 76.833 61.850, 77.650 63.500 C 78.467 65.150, 81.177 71.450, 83.673 77.500 C 86.168 83.550, 89.364 90.955, 90.775 93.956 C 92.186 96.957, 94.974 103.257, 96.972 107.956 L 100.603 116.500 108.968 116.793 C 118.339 117.122, 120.754 116.638, 119.237 114.738 C 118.693 114.057, 116.675 109.900, 114.752 105.500 C 112.830 101.100, 103.937 81.525, 94.992 62 C 86.046 42.475, 77.304 23.187, 75.566 19.137 L 72.405 11.774 64.075 11.637 C 57.443 11.528, 55.659 11.806, 55.323 13 M 339 11.947 L 335.500 12.500 335.500 64.500 L 335.500 116.500 378 116.500 L 420.500 116.500 420.500 110.500 L 420.500 104.500 386 104.236 L 351.500 103.972 351.245 58.315 C 351.105 33.203, 350.880 12.572, 350.745 12.466 C 349.935 11.835, 341.947 11.482, 339 11.947 M 521.245 12.250 C 520.695 12.938, 515.188 24.750, 509.007 38.500 C 502.826 52.250, 496.194 66.875, 494.269 71 C 484.066 92.861, 474 115.242, 474 116.065 C 474 117.526, 490.570 117.232, 491.752 115.750 C 492.301 115.063, 497.794 102.575, 503.961 88 C 510.127 73.425, 516.031 59.700, 517.080 57.500 C 518.129 55.300, 520.924 48.805, 523.291 43.068 C 525.657 37.330, 528.076 32.475, 528.665 32.278 C 529.255 32.082, 530.417 33.851, 531.248 36.211 C 532.625 40.120, 553.734 89.256, 562.304 108.500 L 565.866 116.500 575.013 116.789 C 584.139 117.077, 584.158 117.072, 583.444 114.789 C 583.051 113.530, 578.316 102.759, 572.921 90.854 C 567.527 78.949, 562.473 67.699, 561.689 65.854 C 557.843 56.800, 537.629 13.342, 536.755 12.250 C 536.133 11.472, 533.204 11, 529 11 C 524.796 11, 521.867 11.472, 521.245 12.250 M 163.406 13.386 C 163.113 14.148, 163.015 16.735, 163.187 19.136 L 163.500 23.500 183.500 24 L 203.500 24.500 204 70.500 L 204.500 116.500 211.500 116.500 L 218.500 116.500 219 70.500 L 219.500 24.500 240 24 L 260.500 23.500 260.800 17.750 L 261.100 12 212.519 12 C 172.040 12, 163.849 12.231, 163.406 13.386 M 508.500 164.350 C 499.971 168.315, 496.834 177.631, 500.964 186.729 C 503.131 191.503, 507.390 194.552, 513.281 195.548 C 517.042 196.183, 518.028 195.937, 525 192.617 C 528.015 191.182, 531.859 183.755, 531.941 179.210 C 532.019 174.862, 528.782 168.693, 525.016 166.011 C 521.175 163.276, 512.654 162.419, 508.500 164.350 M 128.179 167.250 C 127.087 169.037, 124.981 173.425, 123.497 177 C 122.014 180.575, 119.746 185.722, 118.457 188.437 C 116.197 193.197, 116.084 195, 118.046 195 C 118.557 195, 120.123 193.182, 121.525 190.960 L 124.075 186.920 132.288 187.210 C 140.452 187.498, 140.509 187.519, 142 190.717 C 143.564 194.071, 145.786 195.623, 147.104 194.283 C 147.528 193.852, 146.174 190.125, 144.095 186 C 142.016 181.875, 139.484 176.250, 138.467 173.500 C 134.686 163.277, 131.709 161.468, 128.179 167.250 M 170.724 166.665 C 170.227 169.263, 171.597 173.468, 176.533 184.500 C 177.271 186.150, 178.568 189.218, 179.415 191.319 C 180.714 194.539, 181.361 195.087, 183.545 194.819 C 185.750 194.547, 186.575 193.385, 189.092 187 C 191.992 179.644, 194.796 173.259, 197.562 167.710 C 198.790 165.247, 198.763 164.846, 197.332 164.297 C 195.207 163.482, 193.767 165.559, 189.984 174.897 C 184.722 187.887, 183.723 190, 182.848 190 C 182.382 190, 182 189.446, 182 188.769 C 182 186.895, 173.837 166.686, 172.467 165.168 C 171.494 164.090, 171.161 164.376, 170.724 166.665 M 225.438 165.300 C 225.165 166.013, 225.067 172.875, 225.220 180.548 L 225.500 194.500 237.500 194.500 C 247.500 194.500, 249.500 194.250, 249.500 193 C 249.500 191.777, 247.691 191.477, 239.710 191.376 C 234.325 191.308, 229.666 191, 229.357 190.690 C 229.048 190.381, 229.109 187.844, 229.493 185.053 L 230.191 179.979 238.061 180.239 C 242.815 180.397, 245.931 180.104, 245.930 179.500 C 245.930 178.899, 242.878 178.600, 238.274 178.750 C 233.003 178.923, 230.371 178.611, 229.825 177.750 C 228.623 175.859, 228.845 168.214, 230.123 167.424 C 230.741 167.042, 234.004 166.624, 237.373 166.495 C 240.743 166.366, 245.038 166.202, 246.917 166.130 C 254.377 165.846, 248.439 164.743, 237.517 164.384 C 228.676 164.094, 225.818 164.311, 225.438 165.300 M 278 178.893 C 278 190.747, 278.286 193.896, 279.402 194.324 C 281.548 195.148, 282 194.119, 282 188.413 C 282 183.363, 282.119 183.133, 285.067 182.485 C 288.719 181.683, 290.669 183.166, 295.238 190.218 C 297.478 193.674, 298.983 195, 300.668 195 C 302.954 195, 303.815 193.622, 302.166 192.603 C 301.708 192.319, 300.056 190.246, 298.497 187.995 L 295.661 183.903 298.952 180.896 C 302.029 178.086, 302.212 177.557, 301.755 172.799 C 301.036 165.317, 298.943 164.050, 287.250 164.022 L 278 164 278 178.893 M 332.550 164.919 C 332.301 165.321, 332.028 172.142, 331.942 180.075 L 331.786 194.500 341.839 194.784 C 351.664 195.062, 351.964 195.004, 355.090 192.211 C 357.964 189.643, 358.218 188.974, 357.589 185.624 C 357.188 183.484, 356.167 181.639, 355.195 181.295 C 354.263 180.966, 352.815 180.112, 351.977 179.399 C 351.140 178.685, 347.315 177.966, 343.477 177.801 L 336.500 177.500 336.500 172.537 C 336.500 167.789, 336.641 167.534, 339.775 166.636 C 342.079 165.975, 344.247 166.091, 347.086 167.028 C 351.448 168.468, 353 170.412, 353 174.434 C 353 177.238, 354.141 177.740, 355.845 175.687 C 357.259 173.983, 356.196 167.407, 354.245 165.789 C 352.609 164.430, 333.330 163.657, 332.550 164.919 M 396.820 166.250 C 396.045 167.488, 393.262 173.182, 390.636 178.905 C 387.122 186.561, 386.032 189.993, 386.510 191.896 L 387.159 194.481 389.496 190.608 L 391.834 186.735 399.805 186.617 L 407.775 186.500 409.638 190.500 C 410.662 192.700, 412.288 194.645, 413.250 194.823 C 415.567 195.251, 415.459 193.895, 412.677 187.686 C 411.399 184.834, 408.832 178.900, 406.971 174.500 C 405.111 170.100, 403.176 165.938, 402.672 165.250 C 401.235 163.291, 398.367 163.781, 396.820 166.250 M 442.369 165.480 C 442.134 166.094, 442.067 172.875, 442.220 180.548 L 442.500 194.500 452.267 194.433 C 462.846 194.360, 465.061 193.480, 469.438 187.612 C 472.169 183.951, 472.176 175.691, 469.451 171.049 C 466.240 165.579, 461.925 163.908, 451.649 164.153 C 446.241 164.282, 442.631 164.798, 442.369 165.480 M 561.468 164.765 C 560.796 165.243, 560.621 170.569, 560.968 180 C 561.408 191.986, 561.760 194.500, 563 194.500 C 564.111 194.500, 564.630 192.944, 565 188.500 C 565.538 182.042, 565.397 182.144, 572.713 182.878 C 573.380 182.945, 575.732 185.661, 577.940 188.912 C 581.198 193.710, 582.353 194.721, 584.062 194.273 C 585.221 193.970, 585.755 193.447, 585.248 193.111 C 584.741 192.775, 583.050 190.301, 581.489 187.614 C 578.757 182.911, 578.721 182.677, 580.517 181.364 C 581.543 180.614, 582.674 180, 583.031 180 C 584.092 180, 586 175.100, 586 172.376 C 586 170.913, 584.767 168.613, 583.077 166.923 C 580.285 164.131, 579.759 164.001, 571.327 164.015 C 566.472 164.024, 562.035 164.361, 561.468 164.765 M 623.597 166.166 C 622.718 167.419, 622 168.786, 622 169.203 C 622 170.080, 614.664 186.217, 612.475 190.154 C 609.101 196.225, 612.721 196.986, 616.500 191 L 619.025 187 626.992 187 L 634.959 187 636.957 190.915 C 638.735 194.402, 639.960 195.074, 642.711 194.077 C 642.827 194.034, 641.477 190.959, 639.711 187.242 C 637.945 183.525, 635.825 178.692, 635 176.501 C 630.509 164.575, 626.962 161.361, 623.597 166.166 M 282.332 167.635 C 280.617 168.335, 281.803 178.190, 283.790 179.750 C 289.099 183.918, 300.615 177.371, 298.351 171.472 C 297.055 168.094, 287.066 165.701, 282.332 167.635 M 398.667 167.667 C 398.300 168.033, 397.985 169.046, 397.966 169.917 C 397.947 170.787, 397.063 173.300, 396 175.500 C 394.937 177.700, 394.053 180.512, 394.034 181.750 C 394.003 183.774, 394.476 183.998, 398.750 183.985 C 405.915 183.962, 406.754 183.076, 404.583 177.826 C 403.600 175.447, 402.391 172.719, 401.897 171.764 C 401.404 170.809, 401 169.346, 401 168.514 C 401 166.940, 399.821 166.512, 398.667 167.667 M 447 178.884 L 447 191 453.465 191 C 459.271 191, 460.291 190.683, 463.465 187.896 C 466.661 185.091, 467 184.293, 467 179.593 C 467 174.960, 466.617 174.021, 463.493 170.993 C 460.383 167.979, 459.251 167.547, 453.493 167.180 L 447 166.767 447 178.884 M 507.514 170.168 C 500.485 176.609, 502.098 186.585, 510.852 190.815 C 514.344 192.502, 515.221 192.567, 518.643 191.397 C 524.360 189.442, 526.989 185.624, 526.995 179.266 C 526.999 174.938, 526.514 173.487, 524.191 170.887 C 521.923 168.349, 520.402 167.649, 516.303 167.255 C 511.608 166.804, 510.944 167.024, 507.514 170.168 M 564.913 167.420 C 564.682 167.651, 564.719 170.689, 564.996 174.170 L 565.500 180.500 570.500 180.500 C 575.999 180.500, 579.049 179.100, 581.415 175.489 C 582.872 173.266, 582.808 172.925, 580.396 170.059 C 578.031 167.248, 577.315 167, 571.578 167 C 568.143 167, 565.144 167.189, 564.913 167.420 M 131.260 170.186 C 129.337 172.504, 125.055 182.722, 125.727 183.393 C 126.503 184.170, 132.819 184.155, 135.750 183.370 C 138.575 182.613, 138.527 181.858, 135.189 174.610 C 132.929 169.700, 132.275 168.964, 131.260 170.186 M 623.131 175.250 C 620.532 180.901, 620.410 181.622, 621.856 182.777 C 623.301 183.930, 631.549 183.601, 632.955 182.334 C 633.205 182.108, 632.814 180.478, 632.085 178.712 C 631.357 176.945, 630.254 174.037, 629.636 172.250 C 629.017 170.463, 627.947 169, 627.259 169 C 626.570 169, 624.713 171.813, 623.131 175.250 M 13 181 C 13 181.648, 25.833 182, 49.500 182 C 73.167 182, 86 181.648, 86 181 C 86 180.352, 73.167 180, 49.500 180 C 25.833 180, 13 180.352, 13 181 M 670 181 C 670 181.647, 682 182, 704 182 C 726 182, 738 181.647, 738 181 C 738 180.353, 726 180, 704 180 C 682 180, 670 180.353, 670 181 M 336.402 182.395 C 336.108 183.162, 336.009 185.496, 336.183 187.582 L 336.500 191.373 342.588 191.708 C 347.578 191.983, 349.155 191.666, 351.338 189.949 C 357.159 185.370, 353.208 181, 343.246 181 C 338.772 181, 336.782 181.406, 336.402 182.395" fill="#FFFFFF" fill-rule="evenodd"/>
</svg>
